<?xml version="1.0" standalone="no"?>
<!DOCTYPE svg PUBLIC "-//W3C//DTD SVG 20010904//EN"
 "http://www.w3.org/TR/2001/REC-SVG-20010904/DTD/svg10.dtd">
<svg version="1.0" xmlns="http://www.w3.org/2000/svg"
 width="200.000000pt" height="200.000000pt" viewBox="0 0 200.000000 200.000000"
 preserveAspectRatio="xMidYMid meet">
<circle cx="100" cy="100" r="80" fill="#00ffc4"/>
<g transform="translate(0.000000,200.000000) scale(0.100000,-0.100000)"
fill="#000000" stroke="none">
<path d="M1221 1870 c-72 -40 -79 -46 -113 -107 -20 -35 -34 -50 -44 -46 -26
10 -141 -18 -192 -48 -28 -16 -65 -47 -84 -70 -18 -23 -52 -60 -75 -82 -23
-21 -50 -59 -59 -83 -34 -88 1 -194 78 -238 18 -11 54 -39 81 -62 26 -23 71
-52 101 -64 l54 -23 -32 -32 c-58 -57 -86 -147 -62 -197 6 -13 -2 -19 -45 -32
-29 -8 -55 -13 -57 -11 -2 2 10 22 27 46 37 50 39 75 8 120 -18 27 -30 35 -59
37 -32 3 -44 -3 -84 -40 -26 -24 -65 -69 -87 -102 -44 -65 -117 -215 -117
-240 0 -31 -18 -15 -40 36 -37 85 -63 232 -56 314 8 103 48 219 105 307 27 41
54 77 59 81 6 3 16 22 22 41 24 72 -44 142 -110 115 -78 -32 -200 -224 -242
-377 -32 -121 -30 -308 6 -428 110 -366 444 -603 821 -582 125 7 196 26 310
82 377 185 548 618 400 1010 -54 144 -190 317 -303 385 -36 21 -46 36 -71 100
-16 41 -39 108 -52 148 -13 39 -25 72 -28 72 -4 0 -30 -14 -60 -30z m44 -128
c31 -98 83 -217 97 -224 7 -4 26 -9 41 -13 35 -7 154 -124 192 -189 15 -26 26
-48 24 -50 -2 -2 -33 -18 -67 -35 -68 -34 -147 -100 -154 -129 -20 -75 83
-111 253 -88 53 7 57 6 63 -16 3 -13 6 -45 6 -73 l0 -50 -122 3 c-143 4 -197
-8 -234 -51 -29 -34 -26 -67 8 -104 24 -26 150 -92 225 -118 l52 -18 -16 -31
c-9 -17 -27 -48 -41 -68 l-24 -37 -41 21 c-76 38 -155 21 -178 -40 -13 -33 -4
-68 27 -109 l24 -32 -92 -45 c-114 -54 -208 -76 -330 -76 -167 0 -304 45 -445
146 -128 92 -242 271 -279 438 -24 112 -15 272 21 381 52 158 187 341 208 283
6 -16 -6 -39 -50 -96 -118 -156 -164 -355 -124 -547 68 -331 252 -500 506
-464 65 9 135 32 135 44 0 5 -19 45 -25 53 -1 1 -22 -5 -46 -14 -68 -25 -192
-23 -253 4 -77 35 -116 68 -116 101 0 98 139 363 211 401 29 16 44 -6 24 -35
-8 -11 -36 -60 -61 -110 -26 -49 -55 -102 -65 -117 -22 -31 -24 -61 -5 -77 20
-17 38 -6 66 40 80 129 281 158 403 58 60 -49 89 -108 96 -196 5 -58 10 -79
24 -87 32 -19 50 18 44 92 -6 82 -53 177 -111 229 -39 35 -43 43 -49 99 -6 58
-5 62 19 73 33 15 37 14 64 -9 29 -25 46 -25 59 -1 15 27 -19 67 -69 82 -33
10 -44 9 -84 -10 -25 -13 -60 -40 -77 -62 -32 -41 -49 -48 -67 -26 -7 8 -6 24
3 50 26 77 100 127 185 127 65 0 107 -18 150 -64 40 -42 73 -45 78 -8 5 33
-70 104 -133 127 -27 10 -56 23 -64 29 -8 7 -46 10 -91 8 -114 -6 -151 13
-310 159 -37 33 -40 41 -40 87 0 59 22 82 78 82 39 0 50 20 32 56 -13 23 -11
27 26 65 46 49 100 75 172 85 l52 7 0 -41 c0 -31 5 -44 19 -52 31 -16 51 12
51 71 0 27 7 66 15 85 17 40 74 99 85 87 4 -4 15 -32 25 -61z m415 -588 c11
-31 18 -59 15 -62 -10 -10 -225 -15 -225 -5 0 6 8 17 18 26 20 18 153 97 164
97 3 0 16 -25 28 -56z m-21 -341 l53 -6 -6 -36 c-11 -70 -27 -111 -42 -111 -8
0 -50 14 -93 30 -94 36 -169 86 -153 102 23 23 140 33 241 21z m-176 -394 c12
-7 24 -13 26 -15 3 -3 -8 -18 -24 -34 l-29 -30 -23 22 c-50 47 -13 89 50 57z"/>
<path d="M907 1545 c-24 -23 -6 -55 32 -55 20 0 34 -8 45 -25 9 -14 21 -25 26
-25 17 0 38 30 33 49 -14 52 -103 89 -136 56z"/>
<path d="M872 1368 c2 -18 21 -28 118 -59 111 -36 139 -37 127 -6 -5 14 -204
87 -235 87 -8 0 -12 -9 -10 -22z"/>
<path d="M882 1317 c-14 -17 -6 -25 85 -86 67 -44 93 -51 93 -23 0 10 -30 36
-77 67 -92 61 -87 59 -101 42z"/>
</g>
</svg>
